<svg xmlns="http://www.w3.org/2000/svg" viewBox="0 0 560 780" width="560" height="780">
<defs>
  <radialGradient id="bg" cx="50%" cy="50%" r="75%">
    <stop offset="0%" stop-color="#0f1923"/>
    <stop offset="100%" stop-color="#020509"/>
  </radialGradient>
  <radialGradient id="glow" cx="50%" cy="58%" r="52%">
    <stop offset="0%" stop-color="#00d4ff" stop-opacity="0.13"/>
    <stop offset="100%" stop-color="#00d4ff" stop-opacity="0"/>
  </radialGradient>
  <filter id="f-glow">
    <feGaussianBlur stdDeviation="11" result="b"/>
    <feMerge><feMergeNode in="b"/><feMergeNode in="SourceGraphic"/></feMerge>
  </filter>
  <filter id="f-tglow">
    <feGaussianBlur stdDeviation="5" result="b"/>
    <feMerge><feMergeNode in="b"/><feMergeNode in="SourceGraphic"/></feMerge>
  </filter>
  <linearGradient id="div-grad" x1="0%" y1="0%" x2="100%" y2="0%">
    <stop offset="0%"   stop-color="#00d4ff" stop-opacity="0"/>
    <stop offset="50%"  stop-color="#00d4ff" stop-opacity="0.35"/>
    <stop offset="100%" stop-color="#00d4ff" stop-opacity="0"/>
  </linearGradient>
</defs>
<rect width="560" height="780" rx="22" fill="url(#bg)"/>
<ellipse cx="280" cy="390" rx="240" ry="280" fill="url(#glow)"/>
<circle cx="38" cy="38" r="2.5" fill="#00d4ff" opacity="0.07"/>
<circle cx="522" cy="38" r="2.5" fill="#00d4ff" opacity="0.07"/>
<circle cx="38" cy="742" r="2.5" fill="#00d4ff" opacity="0.07"/>
<circle cx="522" cy="742" r="2.5" fill="#00d4ff" opacity="0.07"/>
<circle cx="38" cy="76" r="2.5" fill="#00d4ff" opacity="0.07"/>
<circle cx="522" cy="76" r="2.5" fill="#00d4ff" opacity="0.07"/>
<circle cx="38" cy="704" r="2.5" fill="#00d4ff" opacity="0.07"/>
<circle cx="522" cy="704" r="2.5" fill="#00d4ff" opacity="0.07"/>
<circle cx="38" cy="114" r="2.5" fill="#00d4ff" opacity="0.07"/>
<circle cx="522" cy="114" r="2.5" fill="#00d4ff" opacity="0.07"/>
<circle cx="38" cy="666" r="2.5" fill="#00d4ff" opacity="0.07"/>
<circle cx="522" cy="666" r="2.5" fill="#00d4ff" opacity="0.07"/>
<circle cx="76" cy="38" r="2.5" fill="#00d4ff" opacity="0.07"/>
<circle cx="484" cy="38" r="2.5" fill="#00d4ff" opacity="0.07"/>
<circle cx="76" cy="742" r="2.5" fill="#00d4ff" opacity="0.07"/>
<circle cx="484" cy="742" r="2.5" fill="#00d4ff" opacity="0.07"/>
<circle cx="76" cy="76" r="2.5" fill="#00d4ff" opacity="0.07"/>
<circle cx="484" cy="76" r="2.5" fill="#00d4ff" opacity="0.07"/>
<circle cx="76" cy="704" r="2.5" fill="#00d4ff" opacity="0.07"/>
<circle cx="484" cy="704" r="2.5" fill="#00d4ff" opacity="0.07"/>
<circle cx="76" cy="114" r="2.5" fill="#00d4ff" opacity="0.07"/>
<circle cx="484" cy="114" r="2.5" fill="#00d4ff" opacity="0.07"/>
<circle cx="76" cy="666" r="2.5" fill="#00d4ff" opacity="0.07"/>
<circle cx="484" cy="666" r="2.5" fill="#00d4ff" opacity="0.07"/>
<circle cx="114" cy="38" r="2.5" fill="#00d4ff" opacity="0.07"/>
<circle cx="446" cy="38" r="2.5" fill="#00d4ff" opacity="0.07"/>
<circle cx="114" cy="742" r="2.5" fill="#00d4ff" opacity="0.07"/>
<circle cx="446" cy="742" r="2.5" fill="#00d4ff" opacity="0.07"/>
<circle cx="114" cy="76" r="2.5" fill="#00d4ff" opacity="0.07"/>
<circle cx="446" cy="76" r="2.5" fill="#00d4ff" opacity="0.07"/>
<circle cx="114" cy="704" r="2.5" fill="#00d4ff" opacity="0.07"/>
<circle cx="446" cy="704" r="2.5" fill="#00d4ff" opacity="0.07"/>
<circle cx="114" cy="114" r="2.5" fill="#00d4ff" opacity="0.07"/>
<circle cx="446" cy="114" r="2.5" fill="#00d4ff" opacity="0.07"/>
<circle cx="114" cy="666" r="2.5" fill="#00d4ff" opacity="0.07"/>
<circle cx="446" cy="666" r="2.5" fill="#00d4ff" opacity="0.07"/>
<rect x="1" y="1" width="558" height="778" rx="22" fill="none" stroke="#00d4ff" stroke-width="1" stroke-opacity="0.2"/>
<text x="280" y="50" text-anchor="middle" font-family="Segoe UI,Inter,Arial,sans-serif" font-size="28" font-weight="900" letter-spacing="2" fill="white" filter="url(#f-tglow)">VIRTUAL MICROSCOPE</text>
<text x="280" y="82" text-anchor="middle" font-family="Segoe UI,Tahoma,Arial,sans-serif" font-size="22" font-weight="800" fill="#00d4ff" filter="url(#f-tglow)" direction="rtl" unicode-bidi="embed">المجهر الافتراضي</text>
<rect x="100" y="96" width="360" height="1" rx="1" fill="url(#div-grad)"/>
<text x="280" y="118" text-anchor="middle" font-family="Segoe UI,Inter,Arial,sans-serif" font-size="13" font-weight="600" fill="#e0eaf5">Discover the Unseen.</text>
<text x="280" y="136" text-anchor="middle" font-family="Segoe UI,Inter,Arial,sans-serif" font-size="11.5" fill="#8b9bb4">See the microscopic world through the eyes of a laboratory.</text>
<text x="280" y="158" text-anchor="middle" font-family="Segoe UI,Tahoma,Arial,sans-serif" font-size="13" font-weight="600" fill="#e0eaf5" direction="rtl" unicode-bidi="embed">اكتشف ما لا تراه العين.</text>
<text x="280" y="176" text-anchor="middle" font-family="Segoe UI,Tahoma,Arial,sans-serif" font-size="11.5" fill="#8b9bb4" direction="rtl" unicode-bidi="embed">استكشف العالم المجهري تماماً كما يراه المختبر</text>
<rect x="80" y="188" width="400" height="1" rx="1" fill="url(#div-grad)"/>
<rect x="115.8" y="210.8" width="8.4" height="8.4" rx="2" fill="#00d4ff"/>
<rect x="125.8" y="210.8" width="8.4" height="8.4" rx="2" fill="#00d4ff"/>
<rect x="135.8" y="210.8" width="8.4" height="8.4" rx="2" fill="#00d4ff"/>
<rect x="145.8" y="210.8" width="8.4" height="8.4" rx="2" fill="#00d4ff"/>
<rect x="155.8" y="210.8" width="8.4" height="8.4" rx="2" fill="#00d4ff"/>
<rect x="165.8" y="210.8" width="8.4" height="8.4" rx="2" fill="#00d4ff"/>
<rect x="175.8" y="210.8" width="8.4" height="8.4" rx="2" fill="#00d4ff"/>
<circle cx="210.0" cy="215.0" r="3.6" fill="#00d4ff" opacity="0.92"/>
<circle cx="230.0" cy="215.0" r="3.6" fill="#00d4ff" opacity="0.92"/>
<circle cx="240.0" cy="215.0" r="3.6" fill="#00d4ff" opacity="0.92"/>
<circle cx="280.0" cy="215.0" r="3.6" fill="#00d4ff" opacity="0.92"/>
<circle cx="300.0" cy="215.0" r="3.6" fill="#00d4ff" opacity="0.92"/>
<circle cx="320.0" cy="215.0" r="3.6" fill="#00d4ff" opacity="0.92"/>
<circle cx="340.0" cy="215.0" r="3.6" fill="#00d4ff" opacity="0.92"/>
<circle cx="360.0" cy="215.0" r="3.6" fill="#00d4ff" opacity="0.92"/>
<rect x="375.8" y="210.8" width="8.4" height="8.4" rx="2" fill="#00d4ff"/>
<rect x="385.8" y="210.8" width="8.4" height="8.4" rx="2" fill="#00d4ff"/>
<rect x="395.8" y="210.8" width="8.4" height="8.4" rx="2" fill="#00d4ff"/>
<rect x="405.8" y="210.8" width="8.4" height="8.4" rx="2" fill="#00d4ff"/>
<rect x="415.8" y="210.8" width="8.4" height="8.4" rx="2" fill="#00d4ff"/>
<rect x="425.8" y="210.8" width="8.4" height="8.4" rx="2" fill="#00d4ff"/>
<rect x="435.8" y="210.8" width="8.4" height="8.4" rx="2" fill="#00d4ff"/>
<rect x="115.8" y="220.8" width="8.4" height="8.4" rx="2" fill="#00d4ff"/>
<rect x="175.8" y="220.8" width="8.4" height="8.4" rx="2" fill="#00d4ff"/>
<circle cx="230.0" cy="225.0" r="3.6" fill="#00d4ff" opacity="0.92"/>
<circle cx="250.0" cy="225.0" r="3.6" fill="#00d4ff" opacity="0.92"/>
<circle cx="260.0" cy="225.0" r="3.6" fill="#00d4ff" opacity="0.92"/>
<circle cx="280.0" cy="225.0" r="3.6" fill="#00d4ff" opacity="0.92"/>
<circle cx="320.0" cy="225.0" r="3.6" fill="#00d4ff" opacity="0.92"/>
<circle cx="340.0" cy="225.0" r="3.6" fill="#00d4ff" opacity="0.92"/>
<circle cx="360.0" cy="225.0" r="3.6" fill="#00d4ff" opacity="0.92"/>
<rect x="375.8" y="220.8" width="8.4" height="8.4" rx="2" fill="#00d4ff"/>
<rect x="435.8" y="220.8" width="8.4" height="8.4" rx="2" fill="#00d4ff"/>
<rect x="115.8" y="230.8" width="8.4" height="8.4" rx="2" fill="#00d4ff"/>
<rect x="135.8" y="230.8" width="8.4" height="8.4" rx="2" fill="#00d4ff"/>
<rect x="145.8" y="230.8" width="8.4" height="8.4" rx="2" fill="#00d4ff"/>
<rect x="155.8" y="230.8" width="8.4" height="8.4" rx="2" fill="#00d4ff"/>
<rect x="175.8" y="230.8" width="8.4" height="8.4" rx="2" fill="#00d4ff"/>
<circle cx="200.0" cy="235.0" r="3.6" fill="#00d4ff" opacity="0.92"/>
<circle cx="220.0" cy="235.0" r="3.6" fill="#00d4ff" opacity="0.92"/>
<circle cx="240.0" cy="235.0" r="3.6" fill="#00d4ff" opacity="0.92"/>
<circle cx="250.0" cy="235.0" r="3.6" fill="#00d4ff" opacity="0.92"/>
<circle cx="280.0" cy="235.0" r="3.6" fill="#00d4ff" opacity="0.92"/>
<circle cx="290.0" cy="235.0" r="3.6" fill="#00d4ff" opacity="0.92"/>
<circle cx="310.0" cy="235.0" r="3.6" fill="#00d4ff" opacity="0.92"/>
<circle cx="320.0" cy="235.0" r="3.6" fill="#00d4ff" opacity="0.92"/>
<circle cx="330.0" cy="235.0" r="3.6" fill="#00d4ff" opacity="0.92"/>
<circle cx="340.0" cy="235.0" r="3.6" fill="#00d4ff" opacity="0.92"/>
<circle cx="350.0" cy="235.0" r="3.6" fill="#00d4ff" opacity="0.92"/>
<circle cx="360.0" cy="235.0" r="3.6" fill="#00d4ff" opacity="0.92"/>
<rect x="375.8" y="230.8" width="8.4" height="8.4" rx="2" fill="#00d4ff"/>
<rect x="395.8" y="230.8" width="8.4" height="8.4" rx="2" fill="#00d4ff"/>
<rect x="405.8" y="230.8" width="8.4" height="8.4" rx="2" fill="#00d4ff"/>
<rect x="415.8" y="230.8" width="8.4" height="8.4" rx="2" fill="#00d4ff"/>
<rect x="435.8" y="230.8" width="8.4" height="8.4" rx="2" fill="#00d4ff"/>
<rect x="115.8" y="240.8" width="8.4" height="8.4" rx="2" fill="#00d4ff"/>
<rect x="135.8" y="240.8" width="8.4" height="8.4" rx="2" fill="#00d4ff"/>
<rect x="145.8" y="240.8" width="8.4" height="8.4" rx="2" fill="#00d4ff"/>
<rect x="155.8" y="240.8" width="8.4" height="8.4" rx="2" fill="#00d4ff"/>
<rect x="175.8" y="240.8" width="8.4" height="8.4" rx="2" fill="#00d4ff"/>
<circle cx="200.0" cy="245.0" r="3.6" fill="#00d4ff" opacity="0.92"/>
<circle cx="210.0" cy="245.0" r="3.6" fill="#00d4ff" opacity="0.92"/>
<circle cx="260.0" cy="245.0" r="3.6" fill="#00d4ff" opacity="0.92"/>
<circle cx="270.0" cy="245.0" r="3.6" fill="#00d4ff" opacity="0.92"/>
<circle cx="280.0" cy="245.0" r="3.6" fill="#00d4ff" opacity="0.92"/>
<circle cx="290.0" cy="245.0" r="3.6" fill="#00d4ff" opacity="0.92"/>
<circle cx="300.0" cy="245.0" r="3.6" fill="#00d4ff" opacity="0.92"/>
<circle cx="310.0" cy="245.0" r="3.6" fill="#00d4ff" opacity="0.92"/>
<circle cx="320.0" cy="245.0" r="3.6" fill="#00d4ff" opacity="0.92"/>
<circle cx="330.0" cy="245.0" r="3.6" fill="#00d4ff" opacity="0.92"/>
<circle cx="340.0" cy="245.0" r="3.6" fill="#00d4ff" opacity="0.92"/>
<circle cx="350.0" cy="245.0" r="3.6" fill="#00d4ff" opacity="0.92"/>
<circle cx="360.0" cy="245.0" r="3.6" fill="#00d4ff" opacity="0.92"/>
<rect x="375.8" y="240.8" width="8.4" height="8.4" rx="2" fill="#00d4ff"/>
<rect x="395.8" y="240.8" width="8.4" height="8.4" rx="2" fill="#00d4ff"/>
<rect x="405.8" y="240.8" width="8.4" height="8.4" rx="2" fill="#00d4ff"/>
<rect x="415.8" y="240.8" width="8.4" height="8.4" rx="2" fill="#00d4ff"/>
<rect x="435.8" y="240.8" width="8.4" height="8.4" rx="2" fill="#00d4ff"/>
<rect x="115.8" y="250.8" width="8.4" height="8.4" rx="2" fill="#00d4ff"/>
<rect x="135.8" y="250.8" width="8.4" height="8.4" rx="2" fill="#00d4ff"/>
<rect x="145.8" y="250.8" width="8.4" height="8.4" rx="2" fill="#00d4ff"/>
<rect x="155.8" y="250.8" width="8.4" height="8.4" rx="2" fill="#00d4ff"/>
<rect x="175.8" y="250.8" width="8.4" height="8.4" rx="2" fill="#00d4ff"/>
<circle cx="220.0" cy="255.0" r="3.6" fill="#00d4ff" opacity="0.92"/>
<circle cx="240.0" cy="255.0" r="3.6" fill="#00d4ff" opacity="0.92"/>
<circle cx="270.0" cy="255.0" r="3.6" fill="#00d4ff" opacity="0.92"/>
<circle cx="290.0" cy="255.0" r="3.6" fill="#00d4ff" opacity="0.92"/>
<circle cx="310.0" cy="255.0" r="3.6" fill="#00d4ff" opacity="0.92"/>
<circle cx="320.0" cy="255.0" r="3.6" fill="#00d4ff" opacity="0.92"/>
<rect x="375.8" y="250.8" width="8.4" height="8.4" rx="2" fill="#00d4ff"/>
<rect x="395.8" y="250.8" width="8.4" height="8.4" rx="2" fill="#00d4ff"/>
<rect x="405.8" y="250.8" width="8.4" height="8.4" rx="2" fill="#00d4ff"/>
<rect x="415.8" y="250.8" width="8.4" height="8.4" rx="2" fill="#00d4ff"/>
<rect x="435.8" y="250.8" width="8.4" height="8.4" rx="2" fill="#00d4ff"/>
<rect x="115.8" y="260.8" width="8.4" height="8.4" rx="2" fill="#00d4ff"/>
<rect x="175.8" y="260.8" width="8.4" height="8.4" rx="2" fill="#00d4ff"/>
<circle cx="210.0" cy="265.0" r="3.6" fill="#00d4ff" opacity="0.92"/>
<circle cx="230.0" cy="265.0" r="3.6" fill="#00d4ff" opacity="0.92"/>
<circle cx="270.0" cy="265.0" r="3.6" fill="#00d4ff" opacity="0.92"/>
<circle cx="290.0" cy="265.0" r="3.6" fill="#00d4ff" opacity="0.92"/>
<circle cx="300.0" cy="265.0" r="3.6" fill="#00d4ff" opacity="0.92"/>
<circle cx="320.0" cy="265.0" r="3.6" fill="#00d4ff" opacity="0.92"/>
<circle cx="330.0" cy="265.0" r="3.6" fill="#00d4ff" opacity="0.92"/>
<circle cx="350.0" cy="265.0" r="3.6" fill="#00d4ff" opacity="0.92"/>
<circle cx="360.0" cy="265.0" r="3.6" fill="#00d4ff" opacity="0.92"/>
<rect x="375.8" y="260.8" width="8.4" height="8.4" rx="2" fill="#00d4ff"/>
<rect x="435.8" y="260.8" width="8.4" height="8.4" rx="2" fill="#00d4ff"/>
<rect x="115.8" y="270.8" width="8.4" height="8.4" rx="2" fill="#00d4ff"/>
<rect x="125.8" y="270.8" width="8.4" height="8.4" rx="2" fill="#00d4ff"/>
<rect x="135.8" y="270.8" width="8.4" height="8.4" rx="2" fill="#00d4ff"/>
<rect x="145.8" y="270.8" width="8.4" height="8.4" rx="2" fill="#00d4ff"/>
<rect x="155.8" y="270.8" width="8.4" height="8.4" rx="2" fill="#00d4ff"/>
<rect x="165.8" y="270.8" width="8.4" height="8.4" rx="2" fill="#00d4ff"/>
<rect x="175.8" y="270.8" width="8.4" height="8.4" rx="2" fill="#00d4ff"/>
<circle cx="200.0" cy="275.0" r="3.6" fill="#00d4ff" opacity="0.92"/>
<circle cx="220.0" cy="275.0" r="3.6" fill="#00d4ff" opacity="0.92"/>
<circle cx="240.0" cy="275.0" r="3.6" fill="#00d4ff" opacity="0.92"/>
<circle cx="260.0" cy="275.0" r="3.6" fill="#00d4ff" opacity="0.92"/>
<circle cx="280.0" cy="275.0" r="3.6" fill="#00d4ff" opacity="0.92"/>
<circle cx="300.0" cy="275.0" r="3.6" fill="#00d4ff" opacity="0.92"/>
<circle cx="320.0" cy="275.0" r="3.6" fill="#00d4ff" opacity="0.92"/>
<circle cx="340.0" cy="275.0" r="3.6" fill="#00d4ff" opacity="0.92"/>
<circle cx="360.0" cy="275.0" r="3.6" fill="#00d4ff" opacity="0.92"/>
<rect x="375.8" y="270.8" width="8.4" height="8.4" rx="2" fill="#00d4ff"/>
<rect x="385.8" y="270.8" width="8.4" height="8.4" rx="2" fill="#00d4ff"/>
<rect x="395.8" y="270.8" width="8.4" height="8.4" rx="2" fill="#00d4ff"/>
<rect x="405.8" y="270.8" width="8.4" height="8.4" rx="2" fill="#00d4ff"/>
<rect x="415.8" y="270.8" width="8.4" height="8.4" rx="2" fill="#00d4ff"/>
<rect x="425.8" y="270.8" width="8.4" height="8.4" rx="2" fill="#00d4ff"/>
<rect x="435.8" y="270.8" width="8.4" height="8.4" rx="2" fill="#00d4ff"/>
<circle cx="220.0" cy="285.0" r="3.6" fill="#00d4ff" opacity="0.92"/>
<circle cx="230.0" cy="285.0" r="3.6" fill="#00d4ff" opacity="0.92"/>
<circle cx="280.0" cy="285.0" r="3.6" fill="#00d4ff" opacity="0.92"/>
<circle cx="290.0" cy="285.0" r="3.6" fill="#00d4ff" opacity="0.92"/>
<circle cx="300.0" cy="285.0" r="3.6" fill="#00d4ff" opacity="0.92"/>
<circle cx="320.0" cy="285.0" r="3.6" fill="#00d4ff" opacity="0.92"/>
<circle cx="340.0" cy="285.0" r="3.6" fill="#00d4ff" opacity="0.92"/>
<circle cx="350.0" cy="285.0" r="3.6" fill="#00d4ff" opacity="0.92"/>
<circle cx="150.0" cy="295.0" r="3.6" fill="#00d4ff" opacity="0.92"/>
<circle cx="160.0" cy="295.0" r="3.6" fill="#00d4ff" opacity="0.92"/>
<circle cx="180.0" cy="295.0" r="3.6" fill="#00d4ff" opacity="0.92"/>
<circle cx="190.0" cy="295.0" r="3.6" fill="#00d4ff" opacity="0.92"/>
<circle cx="220.0" cy="295.0" r="3.6" fill="#00d4ff" opacity="0.92"/>
<circle cx="230.0" cy="295.0" r="3.6" fill="#00d4ff" opacity="0.92"/>
<circle cx="240.0" cy="295.0" r="3.6" fill="#00d4ff" opacity="0.92"/>
<circle cx="260.0" cy="295.0" r="3.6" fill="#00d4ff" opacity="0.92"/>
<circle cx="290.0" cy="295.0" r="3.6" fill="#00d4ff" opacity="0.92"/>
<circle cx="300.0" cy="295.0" r="3.6" fill="#00d4ff" opacity="0.92"/>
<circle cx="310.0" cy="295.0" r="3.6" fill="#00d4ff" opacity="0.92"/>
<circle cx="350.0" cy="295.0" r="3.6" fill="#00d4ff" opacity="0.92"/>
<circle cx="360.0" cy="295.0" r="3.6" fill="#00d4ff" opacity="0.92"/>
<circle cx="410.0" cy="295.0" r="3.6" fill="#00d4ff" opacity="0.92"/>
<circle cx="420.0" cy="295.0" r="3.6" fill="#00d4ff" opacity="0.92"/>
<circle cx="120.0" cy="305.0" r="3.6" fill="#00d4ff" opacity="0.92"/>
<circle cx="130.0" cy="305.0" r="3.6" fill="#00d4ff" opacity="0.92"/>
<circle cx="140.0" cy="305.0" r="3.6" fill="#00d4ff" opacity="0.92"/>
<circle cx="190.0" cy="305.0" r="3.6" fill="#00d4ff" opacity="0.92"/>
<circle cx="210.0" cy="305.0" r="3.6" fill="#00d4ff" opacity="0.92"/>
<circle cx="220.0" cy="305.0" r="3.6" fill="#00d4ff" opacity="0.92"/>
<circle cx="230.0" cy="305.0" r="3.6" fill="#00d4ff" opacity="0.92"/>
<circle cx="240.0" cy="305.0" r="3.6" fill="#00d4ff" opacity="0.92"/>
<circle cx="260.0" cy="305.0" r="3.6" fill="#00d4ff" opacity="0.92"/>
<circle cx="280.0" cy="305.0" r="3.6" fill="#00d4ff" opacity="0.92"/>
<circle cx="300.0" cy="305.0" r="3.6" fill="#00d4ff" opacity="0.92"/>
<circle cx="320.0" cy="305.0" r="3.6" fill="#00d4ff" opacity="0.92"/>
<circle cx="350.0" cy="305.0" r="3.6" fill="#00d4ff" opacity="0.92"/>
<circle cx="370.0" cy="305.0" r="3.6" fill="#00d4ff" opacity="0.92"/>
<circle cx="390.0" cy="305.0" r="3.6" fill="#00d4ff" opacity="0.92"/>
<circle cx="400.0" cy="305.0" r="3.6" fill="#00d4ff" opacity="0.92"/>
<circle cx="150.0" cy="315.0" r="3.6" fill="#00d4ff" opacity="0.92"/>
<circle cx="160.0" cy="315.0" r="3.6" fill="#00d4ff" opacity="0.92"/>
<circle cx="170.0" cy="315.0" r="3.6" fill="#00d4ff" opacity="0.92"/>
<circle cx="180.0" cy="315.0" r="3.6" fill="#00d4ff" opacity="0.92"/>
<circle cx="200.0" cy="315.0" r="3.6" fill="#00d4ff" opacity="0.92"/>
<circle cx="250.0" cy="315.0" r="3.6" fill="#00d4ff" opacity="0.92"/>
<circle cx="270.0" cy="315.0" r="3.6" fill="#00d4ff" opacity="0.92"/>
<circle cx="280.0" cy="315.0" r="3.6" fill="#00d4ff" opacity="0.92"/>
<circle cx="300.0" cy="315.0" r="3.6" fill="#00d4ff" opacity="0.92"/>
<circle cx="330.0" cy="315.0" r="3.6" fill="#00d4ff" opacity="0.92"/>
<circle cx="340.0" cy="315.0" r="3.6" fill="#00d4ff" opacity="0.92"/>
<circle cx="350.0" cy="315.0" r="3.6" fill="#00d4ff" opacity="0.92"/>
<circle cx="370.0" cy="315.0" r="3.6" fill="#00d4ff" opacity="0.92"/>
<circle cx="380.0" cy="315.0" r="3.6" fill="#00d4ff" opacity="0.92"/>
<circle cx="390.0" cy="315.0" r="3.6" fill="#00d4ff" opacity="0.92"/>
<circle cx="420.0" cy="315.0" r="3.6" fill="#00d4ff" opacity="0.92"/>
<circle cx="430.0" cy="315.0" r="3.6" fill="#00d4ff" opacity="0.92"/>
<circle cx="440.0" cy="315.0" r="3.6" fill="#00d4ff" opacity="0.92"/>
<circle cx="120.0" cy="325.0" r="3.6" fill="#00d4ff" opacity="0.92"/>
<circle cx="150.0" cy="325.0" r="3.6" fill="#00d4ff" opacity="0.92"/>
<circle cx="160.0" cy="325.0" r="3.6" fill="#00d4ff" opacity="0.92"/>
<circle cx="190.0" cy="325.0" r="3.6" fill="#00d4ff" opacity="0.92"/>
<circle cx="210.0" cy="325.0" r="3.6" fill="#00d4ff" opacity="0.92"/>
<circle cx="220.0" cy="325.0" r="3.6" fill="#00d4ff" opacity="0.92"/>
<circle cx="250.0" cy="325.0" r="3.6" fill="#00d4ff" opacity="0.92"/>
<circle cx="270.0" cy="325.0" r="3.6" fill="#00d4ff" opacity="0.92"/>
<circle cx="280.0" cy="325.0" r="3.6" fill="#00d4ff" opacity="0.92"/>
<circle cx="290.0" cy="325.0" r="3.6" fill="#00d4ff" opacity="0.92"/>
<circle cx="300.0" cy="325.0" r="3.6" fill="#00d4ff" opacity="0.92"/>
<circle cx="310.0" cy="325.0" r="3.6" fill="#00d4ff" opacity="0.92"/>
<circle cx="360.0" cy="325.0" r="3.6" fill="#00d4ff" opacity="0.92"/>
<circle cx="390.0" cy="325.0" r="3.6" fill="#00d4ff" opacity="0.92"/>
<circle cx="400.0" cy="325.0" r="3.6" fill="#00d4ff" opacity="0.92"/>
<circle cx="420.0" cy="325.0" r="3.6" fill="#00d4ff" opacity="0.92"/>
<circle cx="440.0" cy="325.0" r="3.6" fill="#00d4ff" opacity="0.92"/>
<circle cx="120.0" cy="335.0" r="3.6" fill="#00d4ff" opacity="0.92"/>
<circle cx="150.0" cy="335.0" r="3.6" fill="#00d4ff" opacity="0.92"/>
<circle cx="180.0" cy="335.0" r="3.6" fill="#00d4ff" opacity="0.92"/>
<circle cx="190.0" cy="335.0" r="3.6" fill="#00d4ff" opacity="0.92"/>
<circle cx="210.0" cy="335.0" r="3.6" fill="#00d4ff" opacity="0.92"/>
<circle cx="220.0" cy="335.0" r="3.6" fill="#00d4ff" opacity="0.92"/>
<circle cx="230.0" cy="335.0" r="3.6" fill="#00d4ff" opacity="0.92"/>
<circle cx="330.0" cy="335.0" r="3.6" fill="#00d4ff" opacity="0.92"/>
<circle cx="340.0" cy="335.0" r="3.6" fill="#00d4ff" opacity="0.92"/>
<circle cx="350.0" cy="335.0" r="3.6" fill="#00d4ff" opacity="0.92"/>
<circle cx="360.0" cy="335.0" r="3.6" fill="#00d4ff" opacity="0.92"/>
<circle cx="380.0" cy="335.0" r="3.6" fill="#00d4ff" opacity="0.92"/>
<circle cx="390.0" cy="335.0" r="3.6" fill="#00d4ff" opacity="0.92"/>
<circle cx="410.0" cy="335.0" r="3.6" fill="#00d4ff" opacity="0.92"/>
<circle cx="440.0" cy="335.0" r="3.6" fill="#00d4ff" opacity="0.92"/>
<circle cx="120.0" cy="345.0" r="3.6" fill="#00d4ff" opacity="0.92"/>
<circle cx="150.0" cy="345.0" r="3.6" fill="#00d4ff" opacity="0.92"/>
<circle cx="160.0" cy="345.0" r="3.6" fill="#00d4ff" opacity="0.92"/>
<circle cx="170.0" cy="345.0" r="3.6" fill="#00d4ff" opacity="0.92"/>
<circle cx="230.0" cy="345.0" r="3.6" fill="#00d4ff" opacity="0.92"/>
<circle cx="330.0" cy="345.0" r="3.6" fill="#00d4ff" opacity="0.92"/>
<circle cx="350.0" cy="345.0" r="3.6" fill="#00d4ff" opacity="0.92"/>
<circle cx="390.0" cy="345.0" r="3.6" fill="#00d4ff" opacity="0.92"/>
<circle cx="410.0" cy="345.0" r="3.6" fill="#00d4ff" opacity="0.92"/>
<circle cx="430.0" cy="345.0" r="3.6" fill="#00d4ff" opacity="0.92"/>
<circle cx="140.0" cy="355.0" r="3.6" fill="#00d4ff" opacity="0.92"/>
<circle cx="150.0" cy="355.0" r="3.6" fill="#00d4ff" opacity="0.92"/>
<circle cx="160.0" cy="355.0" r="3.6" fill="#00d4ff" opacity="0.92"/>
<circle cx="180.0" cy="355.0" r="3.6" fill="#00d4ff" opacity="0.92"/>
<circle cx="200.0" cy="355.0" r="3.6" fill="#00d4ff" opacity="0.92"/>
<circle cx="210.0" cy="355.0" r="3.6" fill="#00d4ff" opacity="0.92"/>
<circle cx="220.0" cy="355.0" r="3.6" fill="#00d4ff" opacity="0.92"/>
<circle cx="230.0" cy="355.0" r="3.6" fill="#00d4ff" opacity="0.92"/>
<circle cx="380.0" cy="355.0" r="3.6" fill="#00d4ff" opacity="0.92"/>
<circle cx="390.0" cy="355.0" r="3.6" fill="#00d4ff" opacity="0.92"/>
<circle cx="120.0" cy="365.0" r="3.6" fill="#00d4ff" opacity="0.92"/>
<circle cx="130.0" cy="365.0" r="3.6" fill="#00d4ff" opacity="0.92"/>
<circle cx="140.0" cy="365.0" r="3.6" fill="#00d4ff" opacity="0.92"/>
<circle cx="160.0" cy="365.0" r="3.6" fill="#00d4ff" opacity="0.92"/>
<circle cx="170.0" cy="365.0" r="3.6" fill="#00d4ff" opacity="0.92"/>
<circle cx="190.0" cy="365.0" r="3.6" fill="#00d4ff" opacity="0.92"/>
<circle cx="200.0" cy="365.0" r="3.6" fill="#00d4ff" opacity="0.92"/>
<circle cx="360.0" cy="365.0" r="3.6" fill="#00d4ff" opacity="0.92"/>
<circle cx="370.0" cy="365.0" r="3.6" fill="#00d4ff" opacity="0.92"/>
<circle cx="390.0" cy="365.0" r="3.6" fill="#00d4ff" opacity="0.92"/>
<circle cx="410.0" cy="365.0" r="3.6" fill="#00d4ff" opacity="0.92"/>
<circle cx="420.0" cy="365.0" r="3.6" fill="#00d4ff" opacity="0.92"/>
<circle cx="430.0" cy="365.0" r="3.6" fill="#00d4ff" opacity="0.92"/>
<circle cx="440.0" cy="365.0" r="3.6" fill="#00d4ff" opacity="0.92"/>
<circle cx="140.0" cy="375.0" r="3.6" fill="#00d4ff" opacity="0.92"/>
<circle cx="150.0" cy="375.0" r="3.6" fill="#00d4ff" opacity="0.92"/>
<circle cx="170.0" cy="375.0" r="3.6" fill="#00d4ff" opacity="0.92"/>
<circle cx="180.0" cy="375.0" r="3.6" fill="#00d4ff" opacity="0.92"/>
<circle cx="190.0" cy="375.0" r="3.6" fill="#00d4ff" opacity="0.92"/>
<circle cx="200.0" cy="375.0" r="3.6" fill="#00d4ff" opacity="0.92"/>
<circle cx="220.0" cy="375.0" r="3.6" fill="#00d4ff" opacity="0.92"/>
<circle cx="350.0" cy="375.0" r="3.6" fill="#00d4ff" opacity="0.92"/>
<circle cx="370.0" cy="375.0" r="3.6" fill="#00d4ff" opacity="0.92"/>
<circle cx="380.0" cy="375.0" r="3.6" fill="#00d4ff" opacity="0.92"/>
<circle cx="390.0" cy="375.0" r="3.6" fill="#00d4ff" opacity="0.92"/>
<circle cx="400.0" cy="375.0" r="3.6" fill="#00d4ff" opacity="0.92"/>
<circle cx="410.0" cy="375.0" r="3.6" fill="#00d4ff" opacity="0.92"/>
<circle cx="440.0" cy="375.0" r="3.6" fill="#00d4ff" opacity="0.92"/>
<circle cx="120.0" cy="385.0" r="3.6" fill="#00d4ff" opacity="0.92"/>
<circle cx="140.0" cy="385.0" r="3.6" fill="#00d4ff" opacity="0.92"/>
<circle cx="190.0" cy="385.0" r="3.6" fill="#00d4ff" opacity="0.92"/>
<circle cx="220.0" cy="385.0" r="3.6" fill="#00d4ff" opacity="0.92"/>
<circle cx="230.0" cy="385.0" r="3.6" fill="#00d4ff" opacity="0.92"/>
<circle cx="330.0" cy="385.0" r="3.6" fill="#00d4ff" opacity="0.92"/>
<circle cx="340.0" cy="385.0" r="3.6" fill="#00d4ff" opacity="0.92"/>
<circle cx="360.0" cy="385.0" r="3.6" fill="#00d4ff" opacity="0.92"/>
<circle cx="370.0" cy="385.0" r="3.6" fill="#00d4ff" opacity="0.92"/>
<circle cx="380.0" cy="385.0" r="3.6" fill="#00d4ff" opacity="0.92"/>
<circle cx="390.0" cy="385.0" r="3.6" fill="#00d4ff" opacity="0.92"/>
<circle cx="400.0" cy="385.0" r="3.6" fill="#00d4ff" opacity="0.92"/>
<circle cx="410.0" cy="385.0" r="3.6" fill="#00d4ff" opacity="0.92"/>
<circle cx="440.0" cy="385.0" r="3.6" fill="#00d4ff" opacity="0.92"/>
<circle cx="120.0" cy="395.0" r="3.6" fill="#00d4ff" opacity="0.92"/>
<circle cx="150.0" cy="395.0" r="3.6" fill="#00d4ff" opacity="0.92"/>
<circle cx="170.0" cy="395.0" r="3.6" fill="#00d4ff" opacity="0.92"/>
<circle cx="180.0" cy="395.0" r="3.6" fill="#00d4ff" opacity="0.92"/>
<circle cx="190.0" cy="395.0" r="3.6" fill="#00d4ff" opacity="0.92"/>
<circle cx="210.0" cy="395.0" r="3.6" fill="#00d4ff" opacity="0.92"/>
<circle cx="220.0" cy="395.0" r="3.6" fill="#00d4ff" opacity="0.92"/>
<circle cx="230.0" cy="395.0" r="3.6" fill="#00d4ff" opacity="0.92"/>
<circle cx="330.0" cy="395.0" r="3.6" fill="#00d4ff" opacity="0.92"/>
<circle cx="350.0" cy="395.0" r="3.6" fill="#00d4ff" opacity="0.92"/>
<circle cx="390.0" cy="395.0" r="3.6" fill="#00d4ff" opacity="0.92"/>
<circle cx="410.0" cy="395.0" r="3.6" fill="#00d4ff" opacity="0.92"/>
<circle cx="420.0" cy="395.0" r="3.6" fill="#00d4ff" opacity="0.92"/>
<circle cx="430.0" cy="395.0" r="3.6" fill="#00d4ff" opacity="0.92"/>
<circle cx="440.0" cy="395.0" r="3.6" fill="#00d4ff" opacity="0.92"/>
<circle cx="130.0" cy="405.0" r="3.6" fill="#00d4ff" opacity="0.92"/>
<circle cx="140.0" cy="405.0" r="3.6" fill="#00d4ff" opacity="0.92"/>
<circle cx="160.0" cy="405.0" r="3.6" fill="#00d4ff" opacity="0.92"/>
<circle cx="170.0" cy="405.0" r="3.6" fill="#00d4ff" opacity="0.92"/>
<circle cx="340.0" cy="405.0" r="3.6" fill="#00d4ff" opacity="0.92"/>
<circle cx="350.0" cy="405.0" r="3.6" fill="#00d4ff" opacity="0.92"/>
<circle cx="360.0" cy="405.0" r="3.6" fill="#00d4ff" opacity="0.92"/>
<circle cx="370.0" cy="405.0" r="3.6" fill="#00d4ff" opacity="0.92"/>
<circle cx="380.0" cy="405.0" r="3.6" fill="#00d4ff" opacity="0.92"/>
<circle cx="410.0" cy="405.0" r="3.6" fill="#00d4ff" opacity="0.92"/>
<circle cx="420.0" cy="405.0" r="3.6" fill="#00d4ff" opacity="0.92"/>
<circle cx="440.0" cy="405.0" r="3.6" fill="#00d4ff" opacity="0.92"/>
<circle cx="120.0" cy="415.0" r="3.6" fill="#00d4ff" opacity="0.92"/>
<circle cx="140.0" cy="415.0" r="3.6" fill="#00d4ff" opacity="0.92"/>
<circle cx="150.0" cy="415.0" r="3.6" fill="#00d4ff" opacity="0.92"/>
<circle cx="160.0" cy="415.0" r="3.6" fill="#00d4ff" opacity="0.92"/>
<circle cx="180.0" cy="415.0" r="3.6" fill="#00d4ff" opacity="0.92"/>
<circle cx="200.0" cy="415.0" r="3.6" fill="#00d4ff" opacity="0.92"/>
<circle cx="210.0" cy="415.0" r="3.6" fill="#00d4ff" opacity="0.92"/>
<circle cx="220.0" cy="415.0" r="3.6" fill="#00d4ff" opacity="0.92"/>
<circle cx="230.0" cy="415.0" r="3.6" fill="#00d4ff" opacity="0.92"/>
<circle cx="360.0" cy="415.0" r="3.6" fill="#00d4ff" opacity="0.92"/>
<circle cx="410.0" cy="415.0" r="3.6" fill="#00d4ff" opacity="0.92"/>
<circle cx="120.0" cy="425.0" r="3.6" fill="#00d4ff" opacity="0.92"/>
<circle cx="130.0" cy="425.0" r="3.6" fill="#00d4ff" opacity="0.92"/>
<circle cx="140.0" cy="425.0" r="3.6" fill="#00d4ff" opacity="0.92"/>
<circle cx="160.0" cy="425.0" r="3.6" fill="#00d4ff" opacity="0.92"/>
<circle cx="170.0" cy="425.0" r="3.6" fill="#00d4ff" opacity="0.92"/>
<circle cx="210.0" cy="425.0" r="3.6" fill="#00d4ff" opacity="0.92"/>
<circle cx="230.0" cy="425.0" r="3.6" fill="#00d4ff" opacity="0.92"/>
<circle cx="240.0" cy="425.0" r="3.6" fill="#00d4ff" opacity="0.92"/>
<circle cx="280.0" cy="425.0" r="3.6" fill="#00d4ff" opacity="0.92"/>
<circle cx="290.0" cy="425.0" r="3.6" fill="#00d4ff" opacity="0.92"/>
<circle cx="300.0" cy="425.0" r="3.6" fill="#00d4ff" opacity="0.92"/>
<circle cx="310.0" cy="425.0" r="3.6" fill="#00d4ff" opacity="0.92"/>
<circle cx="340.0" cy="425.0" r="3.6" fill="#00d4ff" opacity="0.92"/>
<circle cx="350.0" cy="425.0" r="3.6" fill="#00d4ff" opacity="0.92"/>
<circle cx="390.0" cy="425.0" r="3.6" fill="#00d4ff" opacity="0.92"/>
<circle cx="400.0" cy="425.0" r="3.6" fill="#00d4ff" opacity="0.92"/>
<circle cx="120.0" cy="435.0" r="3.6" fill="#00d4ff" opacity="0.92"/>
<circle cx="140.0" cy="435.0" r="3.6" fill="#00d4ff" opacity="0.92"/>
<circle cx="180.0" cy="435.0" r="3.6" fill="#00d4ff" opacity="0.92"/>
<circle cx="200.0" cy="435.0" r="3.6" fill="#00d4ff" opacity="0.92"/>
<circle cx="230.0" cy="435.0" r="3.6" fill="#00d4ff" opacity="0.92"/>
<circle cx="250.0" cy="435.0" r="3.6" fill="#00d4ff" opacity="0.92"/>
<circle cx="270.0" cy="435.0" r="3.6" fill="#00d4ff" opacity="0.92"/>
<circle cx="290.0" cy="435.0" r="3.6" fill="#00d4ff" opacity="0.92"/>
<circle cx="300.0" cy="435.0" r="3.6" fill="#00d4ff" opacity="0.92"/>
<circle cx="330.0" cy="435.0" r="3.6" fill="#00d4ff" opacity="0.92"/>
<circle cx="350.0" cy="435.0" r="3.6" fill="#00d4ff" opacity="0.92"/>
<circle cx="380.0" cy="435.0" r="3.6" fill="#00d4ff" opacity="0.92"/>
<circle cx="390.0" cy="435.0" r="3.6" fill="#00d4ff" opacity="0.92"/>
<circle cx="400.0" cy="435.0" r="3.6" fill="#00d4ff" opacity="0.92"/>
<circle cx="420.0" cy="435.0" r="3.6" fill="#00d4ff" opacity="0.92"/>
<circle cx="430.0" cy="435.0" r="3.6" fill="#00d4ff" opacity="0.92"/>
<circle cx="440.0" cy="435.0" r="3.6" fill="#00d4ff" opacity="0.92"/>
<circle cx="120.0" cy="445.0" r="3.6" fill="#00d4ff" opacity="0.92"/>
<circle cx="140.0" cy="445.0" r="3.6" fill="#00d4ff" opacity="0.92"/>
<circle cx="150.0" cy="445.0" r="3.6" fill="#00d4ff" opacity="0.92"/>
<circle cx="170.0" cy="445.0" r="3.6" fill="#00d4ff" opacity="0.92"/>
<circle cx="200.0" cy="445.0" r="3.6" fill="#00d4ff" opacity="0.92"/>
<circle cx="210.0" cy="445.0" r="3.6" fill="#00d4ff" opacity="0.92"/>
<circle cx="230.0" cy="445.0" r="3.6" fill="#00d4ff" opacity="0.92"/>
<circle cx="240.0" cy="445.0" r="3.6" fill="#00d4ff" opacity="0.92"/>
<circle cx="250.0" cy="445.0" r="3.6" fill="#00d4ff" opacity="0.92"/>
<circle cx="270.0" cy="445.0" r="3.6" fill="#00d4ff" opacity="0.92"/>
<circle cx="290.0" cy="445.0" r="3.6" fill="#00d4ff" opacity="0.92"/>
<circle cx="300.0" cy="445.0" r="3.6" fill="#00d4ff" opacity="0.92"/>
<circle cx="310.0" cy="445.0" r="3.6" fill="#00d4ff" opacity="0.92"/>
<circle cx="340.0" cy="445.0" r="3.6" fill="#00d4ff" opacity="0.92"/>
<circle cx="350.0" cy="445.0" r="3.6" fill="#00d4ff" opacity="0.92"/>
<circle cx="360.0" cy="445.0" r="3.6" fill="#00d4ff" opacity="0.92"/>
<circle cx="400.0" cy="445.0" r="3.6" fill="#00d4ff" opacity="0.92"/>
<circle cx="420.0" cy="445.0" r="3.6" fill="#00d4ff" opacity="0.92"/>
<circle cx="430.0" cy="445.0" r="3.6" fill="#00d4ff" opacity="0.92"/>
<circle cx="120.0" cy="455.0" r="3.6" fill="#00d4ff" opacity="0.92"/>
<circle cx="130.0" cy="455.0" r="3.6" fill="#00d4ff" opacity="0.92"/>
<circle cx="150.0" cy="455.0" r="3.6" fill="#00d4ff" opacity="0.92"/>
<circle cx="160.0" cy="455.0" r="3.6" fill="#00d4ff" opacity="0.92"/>
<circle cx="170.0" cy="455.0" r="3.6" fill="#00d4ff" opacity="0.92"/>
<circle cx="180.0" cy="455.0" r="3.6" fill="#00d4ff" opacity="0.92"/>
<circle cx="210.0" cy="455.0" r="3.6" fill="#00d4ff" opacity="0.92"/>
<circle cx="220.0" cy="455.0" r="3.6" fill="#00d4ff" opacity="0.92"/>
<circle cx="230.0" cy="455.0" r="3.6" fill="#00d4ff" opacity="0.92"/>
<circle cx="280.0" cy="455.0" r="3.6" fill="#00d4ff" opacity="0.92"/>
<circle cx="320.0" cy="455.0" r="3.6" fill="#00d4ff" opacity="0.92"/>
<circle cx="360.0" cy="455.0" r="3.6" fill="#00d4ff" opacity="0.92"/>
<circle cx="370.0" cy="455.0" r="3.6" fill="#00d4ff" opacity="0.92"/>
<circle cx="380.0" cy="455.0" r="3.6" fill="#00d4ff" opacity="0.92"/>
<circle cx="390.0" cy="455.0" r="3.6" fill="#00d4ff" opacity="0.92"/>
<circle cx="400.0" cy="455.0" r="3.6" fill="#00d4ff" opacity="0.92"/>
<circle cx="200.0" cy="465.0" r="3.6" fill="#00d4ff" opacity="0.92"/>
<circle cx="240.0" cy="465.0" r="3.6" fill="#00d4ff" opacity="0.92"/>
<circle cx="250.0" cy="465.0" r="3.6" fill="#00d4ff" opacity="0.92"/>
<circle cx="280.0" cy="465.0" r="3.6" fill="#00d4ff" opacity="0.92"/>
<circle cx="310.0" cy="465.0" r="3.6" fill="#00d4ff" opacity="0.92"/>
<circle cx="330.0" cy="465.0" r="3.6" fill="#00d4ff" opacity="0.92"/>
<circle cx="360.0" cy="465.0" r="3.6" fill="#00d4ff" opacity="0.92"/>
<circle cx="400.0" cy="465.0" r="3.6" fill="#00d4ff" opacity="0.92"/>
<circle cx="420.0" cy="465.0" r="3.6" fill="#00d4ff" opacity="0.92"/>
<rect x="115.8" y="470.8" width="8.4" height="8.4" rx="2" fill="#00d4ff"/>
<rect x="125.8" y="470.8" width="8.4" height="8.4" rx="2" fill="#00d4ff"/>
<rect x="135.8" y="470.8" width="8.4" height="8.4" rx="2" fill="#00d4ff"/>
<rect x="145.8" y="470.8" width="8.4" height="8.4" rx="2" fill="#00d4ff"/>
<rect x="155.8" y="470.8" width="8.4" height="8.4" rx="2" fill="#00d4ff"/>
<rect x="165.8" y="470.8" width="8.4" height="8.4" rx="2" fill="#00d4ff"/>
<rect x="175.8" y="470.8" width="8.4" height="8.4" rx="2" fill="#00d4ff"/>
<circle cx="200.0" cy="475.0" r="3.6" fill="#00d4ff" opacity="0.92"/>
<circle cx="230.0" cy="475.0" r="3.6" fill="#00d4ff" opacity="0.92"/>
<circle cx="250.0" cy="475.0" r="3.6" fill="#00d4ff" opacity="0.92"/>
<circle cx="280.0" cy="475.0" r="3.6" fill="#00d4ff" opacity="0.92"/>
<circle cx="290.0" cy="475.0" r="3.6" fill="#00d4ff" opacity="0.92"/>
<circle cx="300.0" cy="475.0" r="3.6" fill="#00d4ff" opacity="0.92"/>
<circle cx="310.0" cy="475.0" r="3.6" fill="#00d4ff" opacity="0.92"/>
<circle cx="320.0" cy="475.0" r="3.6" fill="#00d4ff" opacity="0.92"/>
<circle cx="350.0" cy="475.0" r="3.6" fill="#00d4ff" opacity="0.92"/>
<circle cx="360.0" cy="475.0" r="3.6" fill="#00d4ff" opacity="0.92"/>
<circle cx="380.0" cy="475.0" r="3.6" fill="#00d4ff" opacity="0.92"/>
<circle cx="400.0" cy="475.0" r="3.6" fill="#00d4ff" opacity="0.92"/>
<circle cx="410.0" cy="475.0" r="3.6" fill="#00d4ff" opacity="0.92"/>
<rect x="115.8" y="480.8" width="8.4" height="8.4" rx="2" fill="#00d4ff"/>
<rect x="175.8" y="480.8" width="8.4" height="8.4" rx="2" fill="#00d4ff"/>
<circle cx="210.0" cy="485.0" r="3.6" fill="#00d4ff" opacity="0.92"/>
<circle cx="240.0" cy="485.0" r="3.6" fill="#00d4ff" opacity="0.92"/>
<circle cx="250.0" cy="485.0" r="3.6" fill="#00d4ff" opacity="0.92"/>
<circle cx="260.0" cy="485.0" r="3.6" fill="#00d4ff" opacity="0.92"/>
<circle cx="300.0" cy="485.0" r="3.6" fill="#00d4ff" opacity="0.92"/>
<circle cx="330.0" cy="485.0" r="3.6" fill="#00d4ff" opacity="0.92"/>
<circle cx="340.0" cy="485.0" r="3.6" fill="#00d4ff" opacity="0.92"/>
<circle cx="350.0" cy="485.0" r="3.6" fill="#00d4ff" opacity="0.92"/>
<circle cx="360.0" cy="485.0" r="3.6" fill="#00d4ff" opacity="0.92"/>
<circle cx="400.0" cy="485.0" r="3.6" fill="#00d4ff" opacity="0.92"/>
<circle cx="410.0" cy="485.0" r="3.6" fill="#00d4ff" opacity="0.92"/>
<circle cx="420.0" cy="485.0" r="3.6" fill="#00d4ff" opacity="0.92"/>
<circle cx="430.0" cy="485.0" r="3.6" fill="#00d4ff" opacity="0.92"/>
<rect x="115.8" y="490.8" width="8.4" height="8.4" rx="2" fill="#00d4ff"/>
<rect x="135.8" y="490.8" width="8.4" height="8.4" rx="2" fill="#00d4ff"/>
<rect x="145.8" y="490.8" width="8.4" height="8.4" rx="2" fill="#00d4ff"/>
<rect x="155.8" y="490.8" width="8.4" height="8.4" rx="2" fill="#00d4ff"/>
<rect x="175.8" y="490.8" width="8.4" height="8.4" rx="2" fill="#00d4ff"/>
<circle cx="200.0" cy="495.0" r="3.6" fill="#00d4ff" opacity="0.92"/>
<circle cx="210.0" cy="495.0" r="3.6" fill="#00d4ff" opacity="0.92"/>
<circle cx="230.0" cy="495.0" r="3.6" fill="#00d4ff" opacity="0.92"/>
<circle cx="250.0" cy="495.0" r="3.6" fill="#00d4ff" opacity="0.92"/>
<circle cx="310.0" cy="495.0" r="3.6" fill="#00d4ff" opacity="0.92"/>
<circle cx="330.0" cy="495.0" r="3.6" fill="#00d4ff" opacity="0.92"/>
<circle cx="340.0" cy="495.0" r="3.6" fill="#00d4ff" opacity="0.92"/>
<circle cx="350.0" cy="495.0" r="3.6" fill="#00d4ff" opacity="0.92"/>
<circle cx="360.0" cy="495.0" r="3.6" fill="#00d4ff" opacity="0.92"/>
<circle cx="370.0" cy="495.0" r="3.6" fill="#00d4ff" opacity="0.92"/>
<circle cx="380.0" cy="495.0" r="3.6" fill="#00d4ff" opacity="0.92"/>
<circle cx="390.0" cy="495.0" r="3.6" fill="#00d4ff" opacity="0.92"/>
<circle cx="400.0" cy="495.0" r="3.6" fill="#00d4ff" opacity="0.92"/>
<circle cx="430.0" cy="495.0" r="3.6" fill="#00d4ff" opacity="0.92"/>
<rect x="115.8" y="500.8" width="8.4" height="8.4" rx="2" fill="#00d4ff"/>
<rect x="135.8" y="500.8" width="8.4" height="8.4" rx="2" fill="#00d4ff"/>
<rect x="145.8" y="500.8" width="8.4" height="8.4" rx="2" fill="#00d4ff"/>
<rect x="155.8" y="500.8" width="8.4" height="8.4" rx="2" fill="#00d4ff"/>
<rect x="175.8" y="500.8" width="8.4" height="8.4" rx="2" fill="#00d4ff"/>
<circle cx="200.0" cy="505.0" r="3.6" fill="#00d4ff" opacity="0.92"/>
<circle cx="220.0" cy="505.0" r="3.6" fill="#00d4ff" opacity="0.92"/>
<circle cx="240.0" cy="505.0" r="3.6" fill="#00d4ff" opacity="0.92"/>
<circle cx="260.0" cy="505.0" r="3.6" fill="#00d4ff" opacity="0.92"/>
<circle cx="290.0" cy="505.0" r="3.6" fill="#00d4ff" opacity="0.92"/>
<circle cx="310.0" cy="505.0" r="3.6" fill="#00d4ff" opacity="0.92"/>
<circle cx="320.0" cy="505.0" r="3.6" fill="#00d4ff" opacity="0.92"/>
<circle cx="340.0" cy="505.0" r="3.6" fill="#00d4ff" opacity="0.92"/>
<circle cx="370.0" cy="505.0" r="3.6" fill="#00d4ff" opacity="0.92"/>
<circle cx="390.0" cy="505.0" r="3.6" fill="#00d4ff" opacity="0.92"/>
<circle cx="440.0" cy="505.0" r="3.6" fill="#00d4ff" opacity="0.92"/>
<rect x="115.8" y="510.8" width="8.4" height="8.4" rx="2" fill="#00d4ff"/>
<rect x="135.8" y="510.8" width="8.4" height="8.4" rx="2" fill="#00d4ff"/>
<rect x="145.8" y="510.8" width="8.4" height="8.4" rx="2" fill="#00d4ff"/>
<rect x="155.8" y="510.8" width="8.4" height="8.4" rx="2" fill="#00d4ff"/>
<rect x="175.8" y="510.8" width="8.4" height="8.4" rx="2" fill="#00d4ff"/>
<circle cx="210.0" cy="515.0" r="3.6" fill="#00d4ff" opacity="0.92"/>
<circle cx="240.0" cy="515.0" r="3.6" fill="#00d4ff" opacity="0.92"/>
<circle cx="250.0" cy="515.0" r="3.6" fill="#00d4ff" opacity="0.92"/>
<circle cx="280.0" cy="515.0" r="3.6" fill="#00d4ff" opacity="0.92"/>
<circle cx="290.0" cy="515.0" r="3.6" fill="#00d4ff" opacity="0.92"/>
<circle cx="300.0" cy="515.0" r="3.6" fill="#00d4ff" opacity="0.92"/>
<circle cx="310.0" cy="515.0" r="3.6" fill="#00d4ff" opacity="0.92"/>
<circle cx="330.0" cy="515.0" r="3.6" fill="#00d4ff" opacity="0.92"/>
<circle cx="350.0" cy="515.0" r="3.6" fill="#00d4ff" opacity="0.92"/>
<circle cx="360.0" cy="515.0" r="3.6" fill="#00d4ff" opacity="0.92"/>
<circle cx="400.0" cy="515.0" r="3.6" fill="#00d4ff" opacity="0.92"/>
<circle cx="430.0" cy="515.0" r="3.6" fill="#00d4ff" opacity="0.92"/>
<circle cx="440.0" cy="515.0" r="3.6" fill="#00d4ff" opacity="0.92"/>
<rect x="115.8" y="520.8" width="8.4" height="8.4" rx="2" fill="#00d4ff"/>
<rect x="175.8" y="520.8" width="8.4" height="8.4" rx="2" fill="#00d4ff"/>
<circle cx="220.0" cy="525.0" r="3.6" fill="#00d4ff" opacity="0.92"/>
<circle cx="230.0" cy="525.0" r="3.6" fill="#00d4ff" opacity="0.92"/>
<circle cx="240.0" cy="525.0" r="3.6" fill="#00d4ff" opacity="0.92"/>
<circle cx="270.0" cy="525.0" r="3.6" fill="#00d4ff" opacity="0.92"/>
<circle cx="290.0" cy="525.0" r="3.6" fill="#00d4ff" opacity="0.92"/>
<circle cx="300.0" cy="525.0" r="3.6" fill="#00d4ff" opacity="0.92"/>
<circle cx="320.0" cy="525.0" r="3.6" fill="#00d4ff" opacity="0.92"/>
<circle cx="330.0" cy="525.0" r="3.6" fill="#00d4ff" opacity="0.92"/>
<circle cx="380.0" cy="525.0" r="3.6" fill="#00d4ff" opacity="0.92"/>
<circle cx="410.0" cy="525.0" r="3.6" fill="#00d4ff" opacity="0.92"/>
<circle cx="420.0" cy="525.0" r="3.6" fill="#00d4ff" opacity="0.92"/>
<circle cx="430.0" cy="525.0" r="3.6" fill="#00d4ff" opacity="0.92"/>
<circle cx="440.0" cy="525.0" r="3.6" fill="#00d4ff" opacity="0.92"/>
<rect x="115.8" y="530.8" width="8.4" height="8.4" rx="2" fill="#00d4ff"/>
<rect x="125.8" y="530.8" width="8.4" height="8.4" rx="2" fill="#00d4ff"/>
<rect x="135.8" y="530.8" width="8.4" height="8.4" rx="2" fill="#00d4ff"/>
<rect x="145.8" y="530.8" width="8.4" height="8.4" rx="2" fill="#00d4ff"/>
<rect x="155.8" y="530.8" width="8.4" height="8.4" rx="2" fill="#00d4ff"/>
<rect x="165.8" y="530.8" width="8.4" height="8.4" rx="2" fill="#00d4ff"/>
<rect x="175.8" y="530.8" width="8.4" height="8.4" rx="2" fill="#00d4ff"/>
<circle cx="210.0" cy="535.0" r="3.6" fill="#00d4ff" opacity="0.92"/>
<circle cx="220.0" cy="535.0" r="3.6" fill="#00d4ff" opacity="0.92"/>
<circle cx="230.0" cy="535.0" r="3.6" fill="#00d4ff" opacity="0.92"/>
<circle cx="250.0" cy="535.0" r="3.6" fill="#00d4ff" opacity="0.92"/>
<circle cx="260.0" cy="535.0" r="3.6" fill="#00d4ff" opacity="0.92"/>
<circle cx="270.0" cy="535.0" r="3.6" fill="#00d4ff" opacity="0.92"/>
<circle cx="280.0" cy="535.0" r="3.6" fill="#00d4ff" opacity="0.92"/>
<circle cx="290.0" cy="535.0" r="3.6" fill="#00d4ff" opacity="0.92"/>
<circle cx="310.0" cy="535.0" r="3.6" fill="#00d4ff" opacity="0.92"/>
<circle cx="320.0" cy="535.0" r="3.6" fill="#00d4ff" opacity="0.92"/>
<circle cx="340.0" cy="535.0" r="3.6" fill="#00d4ff" opacity="0.92"/>
<circle cx="350.0" cy="535.0" r="3.6" fill="#00d4ff" opacity="0.92"/>
<circle cx="360.0" cy="535.0" r="3.6" fill="#00d4ff" opacity="0.92"/>
<circle cx="400.0" cy="535.0" r="3.6" fill="#00d4ff" opacity="0.92"/>
<circle cx="280.0" cy="375.0" r="46" fill="#060e1a"/>
<circle cx="280.0" cy="375.0" r="44" fill="none" stroke="#00d4ff" stroke-width="1.2" stroke-opacity="0.4"/>
<g transform="translate(231.9,322.3) scale(1.55)" fill="#00d4ff" filter="url(#f-glow)">
  <rect x="28" y="6" width="6" height="14" rx="3"/>
  <rect x="24" y="18" width="14" height="5" rx="2"/>
  <rect x="29" y="22" width="4" height="22" rx="2"/>
  <rect x="18" y="44" width="26" height="3" rx="1.5"/>
  <rect x="12" y="56" width="38" height="4" rx="2"/>
  <rect x="22" y="30" width="14" height="3" rx="1.5"/>
  <ellipse cx="31" cy="50" rx="10" ry="3" fill="none" stroke="#00d4ff" stroke-width="2"/>
  <rect x="28" y="42" width="6" height="4" rx="1" fill="#00c4ef"/>
</g>
<rect x="80" y="556" width="400" height="1" rx="1" fill="url(#div-grad)"/>
<rect x="155" y="570" width="250" height="34" rx="17" fill="#00d4ff" fill-opacity="0.07" stroke="#00d4ff" stroke-width="1" stroke-opacity="0.3"/>
<text x="280" y="592" text-anchor="middle" font-family="Segoe UI,Inter,Arial,sans-serif" font-size="13" font-weight="700" letter-spacing="0.8" fill="#00d4ff" opacity="0.85">virtual-microscope.online</text>
<text x="280" y="632" text-anchor="middle" font-family="Segoe UI,Tahoma,Arial,sans-serif" font-size="12" font-weight="500" fill="#8b9bb4" opacity="0.5" direction="rtl" unicode-bidi="embed">مجهر افتراضي تفاعلي — مجاني، للجميع</text>
<text x="280" y="652" text-anchor="middle" font-family="Segoe UI,Inter,Arial,sans-serif" font-size="11" fill="#8b9bb4" opacity="0.4" letter-spacing="0.3">Interactive Virtual Microscope &#8212; Free &amp; Open for Everyone</text>
</svg>